# Alias OBJ Model File
# Exported from SketchUp, (c) 2000-2012 Trimble Navigation Limited
# File units = meters

mtllib test.mtl

g Mesh1 Model

usemtl FrontColor
v 1 0 -2
vt 39.3701 78.7402
vn 0 1 -0
v 0 0 -2
vt 0 78.7402
v 0 0 -0
vt 0 0
f 1/1/1 2/2/1 3/3/1

v 1 0 -0
vt 39.3701 0
f 3/3/1 4/4/1 1/1/1

vn 0 0 1
v 0 -1 -0
vt 0 -39.3701
f 3/3/2 5/5/2 4/4/2

v 1 -1 -0
vt 39.3701 -39.3701
f 6/6/2 4/4/2 5/5/2

vn 1 0 -0
vt 78.7402 0
f 4/3/3 6/5/3 1/7/3

v 1 -1 -2
vt 78.7402 -39.3701
f 7/8/3 1/7/3 6/5/3

g Mesh2 Model

v 2.29289 0 -0.707107
vt 90.2714 27.8388
v 3 0 -0
vt 118.11 0
v 3.70711 0 -0.707107
vt 145.949 27.8388
f 8/9/1 9/10/1 10/11/1

g Mesh3 Model

v 4 7.10011e-19 3.11406e-18
vt 157.48 -1.78739e-16
vn 7.10011e-19 0.707107 0.707107
v 5 0 2.81997e-18
vt 196.85 -2.18271e-16
v 5 1.41421 -1.41421
vt 196.85 78.7402
f 11/12/4 12/13/4 13/14/4

