# Alias OBJ Model File
# Exported from SketchUp, (c) 2000-2012 Trimble Navigation Limited
# File units = meters

mtllib bump.mtl

g Mesh1 Model

usemtl FrontColor
v 3 0 3
vt -3.90799e-14 -151.087
vn 0.301511 0.904534 0.301511
v 6 1.80478e-16 -0
vt 167.033 -151.087
v 3 1 -0
vt 83.5165 -58.7561
f 1/1/1 2/2/1 3/3/1

vt -2.03489e-14 -224.098
vn 0.316228 0.948683 -2.7241e-17
v 6 1.80478e-16 -3
vt 118.11 -224.098
vt -1.01744e-14 -99.5993
f 2/4/2 4/5/2 3/6/2

v 3 1 -3
vt 118.11 -99.5993
f 5/7/2 3/6/2 4/5/2

vt 118.11 0
vn 0 1 -0
vt 118.11 118.11
v 0 1 -0
vt 0 0
f 3/8/3 5/9/3 6/10/3

v 0 1 -3
vt 0 118.11
f 7/11/3 6/10/3 5/9/3

vt 1.97215e-31 12.4499
vn -0.316228 0.948683 -2.7241e-17
vt -118.11 12.4499
v -3 0 -0
vt 1.01744e-14 -112.049
f 6/12/4 7/13/4 8/14/4

v -3 0 -3
vt -118.11 -112.049
vn -0.316228 0.948683 -5.44819e-17
vt 2.03489e-14 -112.049
f 9/15/5 8/16/5 7/13/5

v 0 0 -6
vt -167.033 -151.087
vn -0.301511 0.904534 -0.301511
vt -4.44089e-14 -151.087
vt -83.5165 -58.7561
f 10/17/6 9/18/6 7/19/6

vt 0 -99.5993
vn 0 0.948683 -0.316228
vt -118.11 -99.5993
vt 0 -224.098
f 7/20/7 5/21/7 10/22/7

v 3 0 -6
vt -118.11 -224.098
f 11/23/7 10/22/7 5/21/7

vt -83.5165 -226.631
vn 0.301511 0.904534 -0.301511
vt 83.5165 -226.631
vt 1.42109e-14 -134.3
f 4/24/8 11/25/8 5/26/8

vt -83.5165 -75.5436
vn -0.301511 0.904534 0.301511
v 0 0 3
vt 83.5165 -75.5436
vt 0 16.7875
f 8/27/9 12/28/9 6/29/9

vt 0 -112.049
vn 0 0.948683 0.316228
vt 118.11 -112.049
vt 0 12.4499
f 12/30/10 1/31/10 6/32/10

vt 118.11 12.4499
vn 2.7241e-17 0.948683 0.316228
f 3/33/11 6/32/11 1/31/11

